<?xml version="1.0" encoding="utf-8"?>
<!-- Generator: Adobe Illustrator 28.3.0, SVG Export Plug-In . SVG Version: 6.00 Build 0)  -->
<svg version="1.1" id="Layer_2" xmlns="http://www.w3.org/2000/svg" xmlns:xlink="http://www.w3.org/1999/xlink" x="0px" y="0px"
	 viewBox="0 0 60 60" style="enable-background:new 0 0 60 60;" xml:space="preserve">
<g>
	<path d="M15,7.2c1.1,0,2.1-0.9,2.1-2.1V5c0-1.1-0.9-2.1-2.1-2.1H2.1C0.9,2.9,0,3.8,0,5v0c0,0,0,0,0,0V55c0,0.3,0.1,0.6,0.2,0.8
		c0.3,0.7,1.1,1.3,1.9,1.3H15c1.1,0,2.1-0.9,2.1-2.1v-0.1c0-1.1-0.9-2.1-2.1-2.1H4.3V7.2H15z"/>
	<path d="M45,7.2c-1.1,0-2.1-0.9-2.1-2.1V5c0-1.1,0.9-2.1,2.1-2.1h12.9C59.1,2.9,60,3.8,60,5v0c0,0,0,0,0,0V55
		c0,0.3-0.1,0.6-0.2,0.8c-0.3,0.7-1.1,1.3-1.9,1.3H45c-1.1,0-2.1-0.9-2.1-2.1v-0.1c0-1.1,0.9-2.1,2.1-2.1h10.7V7.2H45z"/>
	<path d="M41.4,46.2c0.6,0,1.2-0.2,1.7-0.6c1.1-0.8,1.4-2.3,0.9-3.5l0,0l0,0L32.6,15.5l0,0c0-0.1-0.1-0.1-0.1-0.2c0,0,0,0,0,0l0-0.1
		c-0.1-0.1-0.2-0.3-0.3-0.4l0,0c0,0,0,0-0.1-0.1c-0.1-0.1-0.2-0.2-0.3-0.3c0,0,0,0,0,0l-0.1,0c-0.1-0.1-0.2-0.2-0.4-0.2
		c0,0,0,0-0.1,0c0,0-0.1,0-0.1,0C31,14,30.9,14,30.8,14c-0.1,0-0.1,0-0.2-0.1c-0.1,0-0.2,0-0.3,0c-0.1,0-0.2,0-0.3,0
		c-0.1,0-0.2,0-0.3,0c-0.1,0-0.2,0-0.3,0c-0.1,0-0.1,0-0.2,0.1c-0.1,0-0.2,0.1-0.4,0.1c0,0-0.1,0-0.1,0c0,0,0,0-0.1,0
		c-0.1,0.1-0.2,0.1-0.4,0.2l-0.1,0c0,0,0,0,0,0c-0.1,0.1-0.2,0.2-0.3,0.3c0,0,0,0-0.1,0.1l0,0c-0.1,0.1-0.2,0.2-0.3,0.4l0,0
		c0,0,0,0,0,0c0,0.1-0.1,0.1-0.1,0.2l0,0L16.1,42l0,0l0,0c-0.6,1.2-0.2,2.7,0.9,3.5c0.5,0.4,1.1,0.6,1.7,0.6c1.1,0,2.1-0.6,2.5-1.6
		l7.6-17.9l1.2-2.9c0,0,0,0,0,0l1.2,2.9l7.6,17.9C39.3,45.5,40.3,46.2,41.4,46.2z"/>
</g>
</svg>
